<svg width="560" height="160" viewBox="0 0 560 160" xmlns="http://www.w3.org/2000/svg">
<defs>
  <clipPath id="artClip"><rect x="9" y="27" width="82" height="82"/></clipPath>
  <linearGradient id="titleBar" x1="0" y1="0" x2="1" y2="0">
    <stop offset="0%" stop-color="#0a0a18"/>
    <stop offset="100%" stop-color="#141428"/>
  </linearGradient>
  <linearGradient id="btn" x1="0" y1="0" x2="0" y2="1">
    <stop offset="0%" stop-color="#d8d8d8"/>
    <stop offset="100%" stop-color="#b0b0b0"/>
  </linearGradient>
  <linearGradient id="prog" x1="0" y1="0" x2="1" y2="0">
    <stop offset="0%" stop-color="#3b82f6"/>
    <stop offset="100%" stop-color="#1d4ed8"/>
  </linearGradient>
</defs>
<rect width="560" height="160" fill="#000" rx="2"/>
<rect x="1" y="1" width="558" height="158" fill="#fff" rx="1"/>
<rect x="2" y="2" width="556" height="156" fill="#c0c0c0"/>
<rect x="3" y="3" width="554" height="154" fill="#868686"/>
<rect x="4" y="4" width="552" height="152" fill="#c0c0c0"/>
<rect x="5" y="5" width="550" height="19" fill="url(#titleBar)"/>
<text x="280" y="17.5" text-anchor="middle" font-family="'Arial Narrow','Arial',sans-serif" font-size="10" font-weight="bold" fill="#c8c8e8" letter-spacing="3">WINAMP</text>
<rect x="7" y="8" width="14" height="13" fill="#c0c0c0" stroke="#444" stroke-width="0.5" rx="1"/>
<text x="14" y="18" text-anchor="middle" font-family="Arial" font-size="7" fill="#333">≡</text>
<rect x="543" y="8" width="14" height="13" fill="#c0c0c0" stroke="#444" stroke-width="0.5" rx="1"/>
<text x="550" y="18" text-anchor="middle" font-family="Arial" font-size="10" fill="#333">×</text>
<rect x="527" y="8" width="14" height="13" fill="#c0c0c0" stroke="#444" stroke-width="0.5" rx="1"/>
<text x="534" y="18" text-anchor="middle" font-family="Arial" font-size="8" fill="#333">▪</text>
<rect x="5" y="25" width="550" height="95" fill="#0b0c14"/>
<rect x="5" y="25" width="550" height="1" fill="#333"/>
<rect x="9" y="27" width="82" height="82" fill="#111827"/>
       <text x="50" y="76" text-anchor="middle" font-family="monospace" font-size="26" fill="#1e293b">♫</text>
<rect x="9" y="27" width="82" height="82" fill="none" stroke="#1e293b" stroke-width="1"/>
<rect x="97" y="27" width="454" height="95" fill="#0b0c14"/>
<circle cx="108" cy="35" r="4.5" fill="#39d353"/>
<text x="120" y="38.5" font-family="'Courier New',monospace" font-size="8.5" fill="#4a6fa5" letter-spacing="1.5">NOW PLAYING</text>
<text x="100" y="58" font-family="'Courier New',monospace" font-size="14" font-weight="bold" fill="#e2e8f0" letter-spacing="0.3">Souvlaki Space Station</text>
<text x="100" y="76" font-family="'Courier New',monospace" font-size="11" fill="#64748b" letter-spacing="0.3">Slowdive</text>
<rect x="97" y="87" width="454" height="18" fill="#07080f"/>
<rect x="100" y="90" width="58" height="11" fill="#050611"/>
<text x="129" y="99" text-anchor="middle" font-family="'Courier New',monospace" font-size="8.5" fill="#3b6ea8">320 Kbps</text>
<rect x="163" y="90" width="44" height="11" fill="#050611"/>
<text x="185" y="99" text-anchor="middle" font-family="'Courier New',monospace" font-size="8.5" fill="#3b6ea8">44 KHz</text>
<rect x="212" y="90" width="52" height="11" fill="#050611"/>
<text x="238" y="99" text-anchor="middle" font-family="'Courier New',monospace" font-size="8.5" fill="#22c55e">STEREO</text>
<rect x="506" y="90" width="20" height="11" fill="#c0c0c0" stroke="#808080" stroke-width="0.5"/>
<text x="516" y="99" text-anchor="middle" font-family="Arial" font-size="7.5" font-weight="bold" fill="#111">EQ</text>
<rect x="528" y="90" width="20" height="11" fill="#c0c0c0" stroke="#808080" stroke-width="0.5"/>
<text x="538" y="99" text-anchor="middle" font-family="Arial" font-size="7.5" font-weight="bold" fill="#111">PL</text>
<rect x="5" y="121" width="550" height="11" fill="#07080f"/>
<rect x="8" y="123" width="544" height="7" fill="#050611" rx="1"/>
<rect x="8" y="123" width="260" height="7" fill="url(#prog)" rx="1" opacity="0.85"/>
<rect x="266" y="122" width="4" height="9" fill="#93c5fd" rx="1"/>
<rect x="5" y="133" width="550" height="22" fill="#c0c0c0"/>
<rect x="5" y="133" width="550" height="1" fill="#e8e8e8"/>
<rect x="5" y="154" width="550" height="1" fill="#888"/>

<rect x="8" y="135" width="32" height="18" fill="url(#btn)" stroke="#808080" stroke-width="0.5" rx="1"/>
<rect x="9" y="136" width="30" height="8" fill="#e8e8e8" opacity="0.4" rx="1"/>
<text x="24" y="148" text-anchor="middle" font-family="'Segoe UI Emoji','Apple Color Emoji',sans-serif" font-size="10" fill="#111">⏮</text>
<rect x="44" y="135" width="32" height="18" fill="url(#btn)" stroke="#808080" stroke-width="0.5" rx="1"/>
<rect x="45" y="136" width="30" height="8" fill="#e8e8e8" opacity="0.4" rx="1"/>
<text x="60" y="148" text-anchor="middle" font-family="'Segoe UI Emoji','Apple Color Emoji',sans-serif" font-size="10" fill="#111">⏪</text>
<rect x="80" y="135" width="32" height="18" fill="url(#btn)" stroke="#808080" stroke-width="0.5" rx="1"/>
<rect x="81" y="136" width="30" height="8" fill="#e8e8e8" opacity="0.4" rx="1"/>
<text x="96" y="148" text-anchor="middle" font-family="'Segoe UI Emoji','Apple Color Emoji',sans-serif" font-size="10" fill="#111">▶</text>
<rect x="116" y="135" width="32" height="18" fill="url(#btn)" stroke="#808080" stroke-width="0.5" rx="1"/>
<rect x="117" y="136" width="30" height="8" fill="#e8e8e8" opacity="0.4" rx="1"/>
<text x="132" y="148" text-anchor="middle" font-family="'Segoe UI Emoji','Apple Color Emoji',sans-serif" font-size="10" fill="#111">⏸</text>
<rect x="152" y="135" width="32" height="18" fill="url(#btn)" stroke="#808080" stroke-width="0.5" rx="1"/>
<rect x="153" y="136" width="30" height="8" fill="#e8e8e8" opacity="0.4" rx="1"/>
<text x="168" y="148" text-anchor="middle" font-family="'Segoe UI Emoji','Apple Color Emoji',sans-serif" font-size="10" fill="#111">■</text>
<rect x="188" y="135" width="32" height="18" fill="url(#btn)" stroke="#808080" stroke-width="0.5" rx="1"/>
<rect x="189" y="136" width="30" height="8" fill="#e8e8e8" opacity="0.4" rx="1"/>
<text x="204" y="148" text-anchor="middle" font-family="'Segoe UI Emoji','Apple Color Emoji',sans-serif" font-size="10" fill="#111">⏭</text>
<rect x="224" y="135" width="32" height="18" fill="url(#btn)" stroke="#808080" stroke-width="0.5" rx="1"/>
<rect x="225" y="136" width="30" height="8" fill="#e8e8e8" opacity="0.4" rx="1"/>
<text x="240" y="148" text-anchor="middle" font-family="'Segoe UI Emoji','Apple Color Emoji',sans-serif" font-size="10" fill="#111">⏏</text>
<rect x="420" y="135" width="52" height="18" fill="url(#btn)" stroke="#808080" stroke-width="0.5" rx="1"/>
<text x="446" y="147" text-anchor="middle" font-family="Arial" font-size="8.5" fill="#111">Shuffle</text>
<rect x="476" y="135" width="35" height="18" fill="url(#btn)" stroke="#808080" stroke-width="0.5" rx="1"/>
<text x="493" y="147" text-anchor="middle" font-family="Arial" font-size="8.5" fill="#111">Rep</text>
<rect x="0" y="155" width="560" height="5" fill="#000"/>
<rect x="555" y="0" width="5" height="160" fill="#000"/>
</svg>
